# xmcd CD database file
#
# Track frame offsets:
#	150
#	17474
#	38852
#	56799
#	71636
#	87563
#	104298
#	115206
#	135337
#	153827
#	168263
#	183835
#
# Disc length: 2712 seconds
#
# Revision: 4
# Processed by: cddbd v1.5.2PL0 Copyright (c) Steve Scherf et al.
# Submitted via: CdAid (MTCDDB.DLL V2003.12.21)
#
DISCID=940a960c
DTITLE=Alison Krauss - Now That I've Found You - A Collection
DYEAR=1995
DGENRE=Country
TTITLE0=Baby, Now That I've Found You
TTITLE1=Oh, Atlanta
TTITLE2=Broadway
TTITLE3=Every Time You Say Goodbye
TTITLE4=Tonight I'll Be Lonely Too
TTITLE5=Teardrops Will Kiss the Morning Dew
TTITLE6=Sleep On
TTITLE7=When God Dips His Pen of Love in My Heart
TTITLE8=I Will
TTITLE9=I Don't Believe You've Met My Baby
TTITLE10=In the Palm of Your Hand
TTITLE11=When You Say Nothing at All
EXTD=Rounder Records RCD 325 ID3G:   2 YEAR: 1995
EXTT0=Recorded 1994\nPreviously unreleased
EXTT1=Recorded 1994\nPreviously unreleased
EXTT2=Recorded 1994\nPreviously unreleased
EXTT3=Recorded 1992\nAlison Krauss and the Union Station
EXTT4=Recorded 1990
EXTT5=Recorded 1989\nAlison Krauss and the Union Station
EXTT6=Recorded 1987
EXTT7=Recorded 1993\nThe Cox Family
EXTT8=Recorded 1992\nfrom "Within Reach" by Tony Furtado
EXTT9=Recorded 1992\nfrom "Slide Rule" by Jerry Douglas
EXTT10=Recorded 1994\nAlison Krauss and the Cox Family
EXTT11=Recorded 1994\nAlison Krauss and the Union Station
PLAYORDER=
